<svg width="95" height="145" viewBox="0 0 95 145" fill="none" xmlns="http://www.w3.org/2000/svg">
<path d="M25.1006 19.4766C25.3037 19.5781 25.4814 19.6797 25.6338 19.7812C25.7861 19.832 25.9385 19.8828 26.0908 19.9336C26.0908 20.1367 26.0908 20.3145 26.0908 20.4668C26.1416 20.5684 26.167 20.6699 26.167 20.7715L25.6338 21.6094C25.3291 21.7617 24.8213 22.1426 24.1104 22.752C23.3994 23.3613 22.6377 24.0215 21.8252 24.7324C21.0127 25.4434 20.251 26.1289 19.54 26.7891C18.8291 27.4492 18.3467 27.9062 18.0928 28.1602C17.7881 28.5156 17.4072 28.8203 16.9502 29.0742C16.5439 29.3281 16.2646 29.6836 16.1123 30.1406C16.3662 30.5469 16.6455 30.8516 16.9502 31.0547C17.3057 31.207 17.6865 31.4102 18.0928 31.6641C18.7529 32.1719 19.3877 32.7051 19.9971 33.2637C20.6064 33.8223 21.2158 34.3555 21.8252 34.8633C22.5361 35.4219 23.1963 35.9805 23.8057 36.5391C24.415 37.0469 25.0752 37.5293 25.7861 37.9863C25.8877 38.2402 26.0146 38.4688 26.167 38.6719C26.3193 38.875 26.3701 39.1035 26.3193 39.3574C26.4209 39.6113 26.5479 39.8145 26.7002 39.9668C26.8525 40.1191 26.9287 40.3477 26.9287 40.6523C27.1318 40.8047 27.2842 41.0078 27.3857 41.2617C27.5381 41.5156 27.6904 41.7695 27.8428 42.0234C27.7412 42.2773 27.6396 42.4805 27.5381 42.6328C27.4365 42.7852 27.335 42.9883 27.2334 43.2422C26.8271 43.4961 26.4463 43.8008 26.0908 44.1562C25.7861 44.5117 25.4053 44.8164 24.9482 45.0703C24.7959 45.4766 24.5674 45.7812 24.2627 45.9844C23.958 46.1875 23.6787 46.416 23.4248 46.6699L22.2822 48.041C21.9268 48.3965 21.5967 48.7266 21.292 49.0312C20.9873 49.2852 20.708 49.5645 20.4541 49.8691C20.0479 50.2754 19.6416 50.6309 19.2354 50.9355C18.8799 51.1895 18.5244 51.5957 18.1689 52.1543C17.5088 52.7637 16.9756 53.2461 16.5693 53.6016C16.2139 53.957 15.9092 54.3379 15.6553 54.7441C15.1475 55.2012 14.7158 55.582 14.3604 55.8867C14.0557 56.1406 13.8018 56.4707 13.5986 56.877C13.1416 57.334 12.7354 57.6895 12.3799 57.9434C12.0752 58.1973 11.7959 58.5273 11.542 58.9336C11.1357 59.1875 10.8311 59.4668 10.6279 59.7715C9.96777 60.3809 9.40918 60.8633 8.95215 61.2188C8.49512 61.625 7.9873 61.9297 7.42871 62.1328C6.81934 62.0312 6.3623 61.752 6.05762 61.2949C5.75293 60.8379 5.32129 60.4824 4.7627 60.2285C4.66113 60.0762 4.55957 59.873 4.45801 59.6191C4.35645 59.3145 4.22949 59.1113 4.07715 59.0098C3.51855 58.6543 3.21387 58.4258 3.16309 58.3242C3.1123 58.2227 3.03613 58.1211 2.93457 58.0195C2.73145 57.5625 2.52832 57.334 2.3252 57.334C2.17285 57.2832 2.0459 57.2324 1.94434 57.1816C1.89355 57.1309 1.79199 57.0039 1.63965 56.8008C1.53809 56.5469 1.46191 56.3691 1.41113 56.2676C1.81738 55.4043 2.22363 54.7441 2.62988 54.2871C3.08691 53.7793 3.6709 53.2461 4.38184 52.6875C5.2959 51.9258 6.20996 51.0371 7.12402 50.0215C8.08887 48.9551 9.00293 47.9902 9.86621 47.127C10.7295 46.1621 11.6182 45.248 12.5322 44.3848C13.4971 43.5215 14.4111 42.6074 15.2744 41.6426C14.8682 41.2363 14.4873 40.8555 14.1318 40.5C13.7764 40.0938 13.3447 39.7891 12.8369 39.5859C12.6338 39.332 12.2021 38.9512 11.542 38.4434C10.9326 37.8848 10.2471 37.3262 9.48535 36.7676C8.77441 36.209 8.08887 35.7012 7.42871 35.2441C6.76855 34.7363 6.31152 34.4316 6.05762 34.3301C5.80371 33.9746 5.49902 33.7207 5.14355 33.5684C4.83887 33.3652 4.55957 33.1113 4.30566 32.8066C4.30566 32.6035 4.22949 32.4258 4.07715 32.2734C3.97559 32.0703 3.9248 31.8672 3.9248 31.6641C4.17871 31.0039 4.22949 30.6484 4.07715 30.5977C3.9248 30.4961 3.84863 30.3184 3.84863 30.0645C3.84863 29.8105 3.97559 29.5312 4.22949 29.2266C4.53418 28.9219 4.68652 28.5664 4.68652 28.1602C5.09277 27.7539 5.49902 27.4238 5.90527 27.1699C6.3623 26.8652 6.79395 26.5352 7.2002 26.1797C7.40332 25.9258 7.58105 25.6973 7.7334 25.4941C7.88574 25.2402 8.06348 25.0371 8.2666 24.8848C8.8252 24.5801 9.28223 24.377 9.6377 24.2754C10.3486 23.4629 11.085 22.7266 11.8467 22.0664C12.6592 21.3555 13.4209 20.5937 14.1318 19.7812C14.0303 19.375 13.8018 19.0703 13.4463 18.8672C13.1416 18.6641 12.8623 18.4102 12.6084 18.1055C12.2529 17.8516 11.9482 17.5977 11.6943 17.3438C11.4404 17.0898 11.1611 16.8359 10.8564 16.582C10.1455 16.0742 9.28223 15.4395 8.2666 14.6777C7.30176 13.916 6.31152 13.1035 5.2959 12.2402C4.33105 11.377 3.41699 10.5391 2.55371 9.72656C1.74121 8.86328 1.13184 8.07617 0.725586 7.36523C0.725586 7.16211 0.750977 6.98438 0.801758 6.83203C0.90332 6.67969 0.954102 6.50195 0.954102 6.29883C1.5127 5.68945 1.86816 5.25781 2.02051 5.00391C2.17285 4.75 2.2998 4.4707 2.40137 4.16602C2.80762 3.96289 3.1123 3.68359 3.31543 3.32812C3.56934 2.92187 3.9502 2.69336 4.45801 2.64258C4.55957 2.49023 4.58496 2.33789 4.53418 2.18555C4.53418 2.0332 4.55957 1.88086 4.61035 1.72852C4.7627 1.57617 4.91504 1.39844 5.06738 1.19531C5.27051 0.992188 5.44824 0.839844 5.60059 0.738281C5.95605 0.789062 6.26074 0.865234 6.51465 0.966797C6.81934 1.06836 7.09863 1.16992 7.35254 1.27148C7.80957 1.83008 8.34277 2.33789 8.95215 2.79492C9.56152 3.25195 10.1455 3.70898 10.7041 4.16602C10.9072 4.36914 11.085 4.57227 11.2373 4.77539C11.3896 4.92773 11.5674 5.08008 11.7705 5.23242C12.7861 6.14648 13.8779 7.00977 15.0459 7.82227C16.2139 8.58398 17.3057 9.49805 18.3213 10.5645C19.3369 11.5293 20.4033 12.4434 21.5205 13.3066C22.6885 14.1699 23.7041 15.1602 24.5674 16.2773C24.6182 16.582 24.6943 16.8867 24.7959 17.1914C24.9482 17.4453 25.0752 17.75 25.1768 18.1055C25.1768 18.5625 25.2529 18.8418 25.4053 18.9434L25.1006 19.4766ZM62.958 31.3594C63.2119 31.8672 63.3389 32.1973 63.3389 32.3496C63.3896 32.502 63.3896 32.6289 63.3389 32.7305C63.2373 33.1875 63.2373 33.4922 63.3389 33.6445L63.1104 34.9395C63.0088 35.3965 63.0596 35.7266 63.2627 35.9297C63.1611 36.2344 63.1104 36.5391 63.1104 36.8438C63.1104 37.0977 63.0596 37.3516 62.958 37.6055C62.0439 37.6562 61.3584 37.6562 60.9014 37.6055C60.4951 37.5547 60.0889 37.5293 59.6826 37.5293C58.6162 37.5293 57.5244 37.5293 56.4072 37.5293C55.3408 37.4785 54.2744 37.377 53.208 37.2246C50.9736 37.123 48.9424 37.0723 47.1143 37.0723C46.251 37.0215 45.3877 36.9707 44.5244 36.9199C43.7119 36.8691 42.8994 36.8438 42.0869 36.8438C41.0205 36.7422 40.0811 36.6914 39.2686 36.6914C38.4561 36.6406 37.6943 36.6152 36.9834 36.6152C36.5771 36.6152 36.1455 36.6406 35.6885 36.6914C35.2822 36.7422 34.8252 36.7676 34.3174 36.7676C33.8096 36.7676 33.3018 36.7676 32.7939 36.7676C32.3369 36.7168 31.8291 36.6914 31.2705 36.6914C31.1689 36.3359 31.1436 36.0566 31.1943 35.8535C31.2451 35.6504 31.2705 35.3965 31.2705 35.0918C31.0674 34.7363 30.9404 34.3809 30.8896 34.0254C30.8389 33.6699 30.8135 33.3145 30.8135 32.959C30.8135 32.7051 30.8135 32.4258 30.8135 32.1211C30.8643 31.8164 30.915 31.5371 30.9658 31.2832C30.8643 31.1309 30.7627 30.9785 30.6611 30.8262C30.6104 30.6738 30.585 30.5469 30.585 30.4453C30.6865 30.0391 30.7627 29.7598 30.8135 29.6074C30.9658 29.5059 31.1182 29.4297 31.2705 29.3789C31.4736 29.2773 31.626 29.1504 31.7275 28.998C32.6924 28.8457 33.6826 28.7949 34.6982 28.8457C35.7139 28.8457 36.7041 28.8457 37.6689 28.8457C38.4814 28.8457 39.2686 28.8711 40.0303 28.9219C40.792 28.9727 41.5791 29.0234 42.3916 29.0742C43.3564 29.1758 44.3213 29.2266 45.2861 29.2266C46.3018 29.2266 47.3174 29.2266 48.333 29.2266C49.2471 29.2266 50.1611 29.2773 51.0752 29.3789C52.04 29.4805 52.9541 29.5312 53.8174 29.5312C56.7627 29.5312 59.7588 29.6836 62.8057 29.9883C62.9072 30.5977 62.958 31.0547 62.958 31.3594ZM91.6748 19.4766C91.8779 19.5781 92.0557 19.6797 92.208 19.7812C92.3604 19.832 92.5127 19.8828 92.665 19.9336C92.665 20.1367 92.665 20.3145 92.665 20.4668C92.7158 20.5684 92.7412 20.6699 92.7412 20.7715L92.208 21.6094C91.9033 21.7617 91.3955 22.1426 90.6846 22.752C89.9736 23.3613 89.2119 24.0215 88.3994 24.7324C87.5869 25.4434 86.8252 26.1289 86.1143 26.7891C85.4033 27.4492 84.9209 27.9062 84.667 28.1602C84.3623 28.5156 83.9814 28.8203 83.5244 29.0742C83.1182 29.3281 82.8389 29.6836 82.6865 30.1406C82.9404 30.5469 83.2197 30.8516 83.5244 31.0547C83.8799 31.207 84.2607 31.4102 84.667 31.6641C85.3271 32.1719 85.9619 32.7051 86.5713 33.2637C87.1807 33.8223 87.79 34.3555 88.3994 34.8633C89.1104 35.4219 89.7705 35.9805 90.3799 36.5391C90.9893 37.0469 91.6494 37.5293 92.3604 37.9863C92.4619 38.2402 92.5889 38.4688 92.7412 38.6719C92.8936 38.875 92.9443 39.1035 92.8936 39.3574C92.9951 39.6113 93.1221 39.8145 93.2744 39.9668C93.4268 40.1191 93.5029 40.3477 93.5029 40.6523C93.7061 40.8047 93.8584 41.0078 93.96 41.2617C94.1123 41.5156 94.2646 41.7695 94.417 42.0234C94.3154 42.2773 94.2139 42.4805 94.1123 42.6328C94.0107 42.7852 93.9092 42.9883 93.8076 43.2422C93.4014 43.4961 93.0205 43.8008 92.665 44.1562C92.3604 44.5117 91.9795 44.8164 91.5225 45.0703C91.3701 45.4766 91.1416 45.7812 90.8369 45.9844C90.5322 46.1875 90.2529 46.416 89.999 46.6699L88.8564 48.041C88.501 48.3965 88.1709 48.7266 87.8662 49.0312C87.5615 49.2852 87.2822 49.5645 87.0283 49.8691C86.6221 50.2754 86.2158 50.6309 85.8096 50.9355C85.4541 51.1895 85.0986 51.5957 84.7432 52.1543C84.083 52.7637 83.5498 53.2461 83.1436 53.6016C82.7881 53.957 82.4834 54.3379 82.2295 54.7441C81.7217 55.2012 81.29 55.582 80.9346 55.8867C80.6299 56.1406 80.376 56.4707 80.1729 56.877C79.7158 57.334 79.3096 57.6895 78.9541 57.9434C78.6494 58.1973 78.3701 58.5273 78.1162 58.9336C77.71 59.1875 77.4053 59.4668 77.2021 59.7715C76.542 60.3809 75.9834 60.8633 75.5264 61.2188C75.0693 61.625 74.5615 61.9297 74.0029 62.1328C73.3936 62.0312 72.9365 61.752 72.6318 61.2949C72.3271 60.8379 71.8955 60.4824 71.3369 60.2285C71.2354 60.0762 71.1338 59.873 71.0322 59.6191C70.9307 59.3145 70.8037 59.1113 70.6514 59.0098C70.0928 58.6543 69.7881 58.4258 69.7373 58.3242C69.6865 58.2227 69.6104 58.1211 69.5088 58.0195C69.3057 57.5625 69.1025 57.334 68.8994 57.334C68.7471 57.2832 68.6201 57.2324 68.5186 57.1816C68.4678 57.1309 68.3662 57.0039 68.2139 56.8008C68.1123 56.5469 68.0361 56.3691 67.9854 56.2676C68.3916 55.4043 68.7979 54.7441 69.2041 54.2871C69.6611 53.7793 70.2451 53.2461 70.9561 52.6875C71.8701 51.9258 72.7842 51.0371 73.6982 50.0215C74.6631 48.9551 75.5771 47.9902 76.4404 47.127C77.3037 46.1621 78.1924 45.248 79.1064 44.3848C80.0713 43.5215 80.9854 42.6074 81.8486 41.6426C81.4424 41.2363 81.0615 40.8555 80.7061 40.5C80.3506 40.0938 79.9189 39.7891 79.4111 39.5859C79.208 39.332 78.7764 38.9512 78.1162 38.4434C77.5068 37.8848 76.8213 37.3262 76.0596 36.7676C75.3486 36.209 74.6631 35.7012 74.0029 35.2441C73.3428 34.7363 72.8857 34.4316 72.6318 34.3301C72.3779 33.9746 72.0732 33.7207 71.7178 33.5684C71.4131 33.3652 71.1338 33.1113 70.8799 32.8066C70.8799 32.6035 70.8037 32.4258 70.6514 32.2734C70.5498 32.0703 70.499 31.8672 70.499 31.6641C70.7529 31.0039 70.8037 30.6484 70.6514 30.5977C70.499 30.4961 70.4229 30.3184 70.4229 30.0645C70.4229 29.8105 70.5498 29.5312 70.8037 29.2266C71.1084 28.9219 71.2607 28.5664 71.2607 28.1602C71.667 27.7539 72.0732 27.4238 72.4795 27.1699C72.9365 26.8652 73.3682 26.5352 73.7744 26.1797C73.9775 25.9258 74.1553 25.6973 74.3076 25.4941C74.46 25.2402 74.6377 25.0371 74.8408 24.8848C75.3994 24.5801 75.8564 24.377 76.2119 24.2754C76.9229 23.4629 77.6592 22.7266 78.4209 22.0664C79.2334 21.3555 79.9951 20.5937 80.7061 19.7812C80.6045 19.375 80.376 19.0703 80.0205 18.8672C79.7158 18.6641 79.4365 18.4102 79.1826 18.1055C78.8271 17.8516 78.5225 17.5977 78.2686 17.3438C78.0146 17.0898 77.7354 16.8359 77.4307 16.582C76.7197 16.0742 75.8564 15.4395 74.8408 14.6777C73.876 13.916 72.8857 13.1035 71.8701 12.2402C70.9053 11.377 69.9912 10.5391 69.1279 9.72656C68.3154 8.86328 67.7061 8.07617 67.2998 7.36523C67.2998 7.16211 67.3252 6.98438 67.376 6.83203C67.4775 6.67969 67.5283 6.50195 67.5283 6.29883C68.0869 5.68945 68.4424 5.25781 68.5947 5.00391C68.7471 4.75 68.874 4.4707 68.9756 4.16602C69.3818 3.96289 69.6865 3.68359 69.8896 3.32812C70.1436 2.92187 70.5244 2.69336 71.0322 2.64258C71.1338 2.49023 71.1592 2.33789 71.1084 2.18555C71.1084 2.0332 71.1338 1.88086 71.1846 1.72852C71.3369 1.57617 71.4893 1.39844 71.6416 1.19531C71.8447 0.992188 72.0225 0.839844 72.1748 0.738281C72.5303 0.789062 72.835 0.865234 73.0889 0.966797C73.3936 1.06836 73.6729 1.16992 73.9268 1.27148C74.3838 1.83008 74.917 2.33789 75.5264 2.79492C76.1357 3.25195 76.7197 3.70898 77.2783 4.16602C77.4814 4.36914 77.6592 4.57227 77.8115 4.77539C77.9639 4.92773 78.1416 5.08008 78.3447 5.23242C79.3604 6.14648 80.4521 7.00977 81.6201 7.82227C82.7881 8.58398 83.8799 9.49805 84.8955 10.5645C85.9111 11.5293 86.9775 12.4434 88.0947 13.3066C89.2627 14.1699 90.2783 15.1602 91.1416 16.2773C91.1924 16.582 91.2686 16.8867 91.3701 17.1914C91.5225 17.4453 91.6494 17.75 91.751 18.1055C91.751 18.5625 91.8271 18.8418 91.9795 18.9434L91.6748 19.4766ZM40.2765 114.192C39.1245 114.192 38.3005 113.504 37.8045 112.128V114H33.4845V93.264H37.8045V97.272C38.4765 96.584 39.2605 96.24 40.1565 96.24C41.5165 96.24 42.4925 96.648 43.0845 97.464C43.6765 98.264 43.9725 99.424 43.9725 100.944V109.416C43.9725 110.856 43.6685 112.016 43.0605 112.896C42.4525 113.76 41.5245 114.192 40.2765 114.192ZM38.8605 110.928C39.1485 110.928 39.3485 110.84 39.4605 110.664C39.5885 110.472 39.6605 110.24 39.6765 109.968C39.7085 109.68 39.7245 109.24 39.7245 108.648V101.328C39.7245 100.704 39.6685 100.24 39.5565 99.936C39.4445 99.632 39.2045 99.48 38.8365 99.48C38.4365 99.48 38.1645 99.632 38.0205 99.936C37.8765 100.24 37.8045 100.688 37.8045 101.28V108.648C37.8045 109.416 37.8685 109.992 37.9965 110.376C38.1245 110.744 38.4125 110.928 38.8605 110.928ZM45.172 114.264H47.188C47.476 114.264 47.62 114.144 47.62 113.904C47.62 113.792 47.612 113.704 47.596 113.64L44.86 96.432H48.868L49.66 105L50.044 109.368L50.5 105L51.436 96.432H55.468L52.204 114.912C52.092 115.6 51.86 116.104 51.508 116.424C51.172 116.76 50.636 116.928 49.9 116.928H45.172V114.264ZM26.8768 144V123.384H35.1328V127.368H31.0768V131.376H34.9648V135.264H31.0768V139.992H35.3968V144H26.8768ZM36.5035 144V140.496H40.7035V144H36.5035ZM47.1718 144.192C45.5078 144.192 44.2438 143.688 43.3798 142.68C42.5158 141.656 42.0838 140.224 42.0838 138.384V128.568C42.0838 126.792 42.5158 125.456 43.3798 124.56C44.2438 123.648 45.5078 123.192 47.1718 123.192C48.8358 123.192 50.0998 123.648 50.9638 124.56C51.8278 125.456 52.2598 126.792 52.2598 128.568V138.384C52.2598 140.24 51.8278 141.672 50.9638 142.68C50.0998 143.688 48.8358 144.192 47.1718 144.192ZM47.1718 140.4C47.5398 140.4 47.7878 140.24 47.9158 139.92C48.0438 139.6 48.1078 139.152 48.1078 138.576V128.496C48.1078 128.048 48.0438 127.688 47.9158 127.416C47.8038 127.128 47.5638 126.984 47.1958 126.984C46.5078 126.984 46.1638 127.504 46.1638 128.544V138.6C46.1638 139.192 46.2358 139.64 46.3798 139.944C46.5238 140.248 46.7878 140.4 47.1718 140.4ZM53.6597 144V140.496H57.8597V144H53.6597ZM59.4081 144V123.384H63.5361V140.496H67.7841V144H59.4081Z" fill="white"/>
</svg>
