<svg width="67" height="47" viewBox="0 0 67 47" fill="none" xmlns="http://www.w3.org/2000/svg">
<rect x="3" y="12" width="60.6914" height="32" rx="16" fill="#080210" stroke="#6C11CE" stroke-width="6"/>
<rect x="30" y="9" width="6" height="38" fill="#6C11CE"/>
<circle cx="33.5" cy="28.5" r="6.5" fill="#080210" stroke="#6C11CE" stroke-width="6"/>
<path d="M58.6827 0.3261C59.1413 -0.1087 59.8587 -0.1087 60.3173 0.3261L62.6271 2.51575C62.7624 2.64404 62.9259 2.73868 63.1043 2.79206L66.1501 3.7032C66.7549 3.88413 67.1136 4.50717 66.9674 5.1229L66.2314 8.22369C66.1883 8.40536 66.1883 8.59464 66.2314 8.77631L66.9674 11.8771C67.1136 12.4928 66.7549 13.1159 66.1501 13.2968L63.1043 14.2079C62.9259 14.2613 62.7624 14.356 62.6271 14.4843L60.3173 16.6739C59.8587 17.1087 59.1413 17.1087 58.6827 16.6739L56.3729 14.4843C56.2376 14.356 56.0741 14.2613 55.8957 14.2079L52.8499 13.2968C52.2451 13.1159 51.8864 12.4928 52.0326 11.8771L52.7686 8.77631C52.8117 8.59464 52.8117 8.40536 52.7686 8.22369L52.0326 5.1229C51.8864 4.50717 52.2451 3.88413 52.8499 3.7032L55.8957 2.79206C56.0741 2.73868 56.2376 2.64404 56.3729 2.51575L58.6827 0.3261Z" fill="#FF614B"/>
</svg>
